# xmcd CD database file
#
# Track frame offsets:
#	150
#	24513
#	42446
#	60529
#	91503
#	109809
#	128383
#	153181
#	170296
#	193152
#	215312
#	237953
#
# Disc length: 3519 seconds
#
# Revision: 0
# Processed by: cddbd v1.4PL0 Copyright (c) Steve Scherf et al.
# Submitted via: CDex 1.50beta10
#
DISCID=8e0dbd0c
DTITLE=The Old Jazz Men - Track No01
DYEAR=2002
DGENRE=Jazz
TTITLE0=When You're Smiling
TTITLE1=Algiers Strut
TTITLE2=Carry Me Back To Old Virginia
TTITLE3=Just A Closer Walk With Thee
TTITLE4=Gloryland
TTITLE5=Corinne, Corinne
TTITLE6=I'll Be With You In Appelblossom Time
TTITLE7=Alcoholic Blues
TTITLE8=Nyboders Pris
TTITLE9=Bill Bailey
TTITLE10=Just A Little While To Stay Here
TTITLE11=Ice Cream
EXTD=YEAR: 2002
EXTT0=
EXTT1=
EXTT2=
EXTT3=
EXTT4=
EXTT5=
EXTT6=
EXTT7=
EXTT8=
EXTT9=
EXTT10=
EXTT11=
PLAYORDER=
